<?xml version="1.0" encoding="UTF-8"?>
<svg xmlns="http://www.w3.org/2000/svg" viewBox="0 0 40 40" width="40" height="40">
  <defs>
    <clipPath id="mask">
      <rect x="0" y="0" width="40" height="40" rx="6"/>
    </clipPath>
  </defs>
  <rect x="0" y="0" width="40" height="40" rx="6" fill="#141414"/>
  <g clip-path="url(#mask)">
    <rect x="2" y="-161" width="15" height="10" rx="4" fill="#f5f5f5"/><rect x="2" y="-149" width="20" height="20" rx="4" fill="#f5f5f5"/><rect x="2" y="-127" width="30" height="30" rx="4" fill="#f5f5f5"/><rect x="2" y="-95" width="20" height="30" rx="4" fill="#f5f5f5"/><rect x="7" y="-63" width="15" height="13" rx="4" fill="#f5f5f5"/><rect x="7" y="-48" width="15" height="7" rx="3.5" fill="#f5f5f5"/><rect x="7" y="-39" width="15" height="7" rx="3.5" fill="#f5f5f5"/><rect x="7" y="-30" width="15" height="7" rx="3.5" fill="#f5f5f5"/><rect x="2" y="-21" width="20" height="13" rx="4" fill="#f5f5f5"/><rect x="2" y="-6" width="20" height="6" rx="3" fill="#f5f5f5"/><rect x="2" y="2" width="20" height="6" rx="3" fill="#f5f5f5"/><rect x="2" y="10" width="20" height="9" rx="4" fill="#f5f5f5"/><rect x="2" y="21" width="20" height="6" rx="3" fill="#f5f5f5"/><rect x="2" y="29" width="20" height="30" rx="4" fill="#f5f5f5"/><rect x="2" y="61" width="20" height="30" rx="4" fill="#f5f5f5"/><rect x="7" y="93" width="31" height="31" rx="4" fill="#f5f5f5"/>
  </g>
</svg>


